<svg width="100" height="20" viewBox="0 0 100 20" fill="none" xmlns="http://www.w3.org/2000/svg">
<g clip-path="url(#clip0_1133_8047)">
<path d="M9.99911 15.2167L4.12161 18.5067L5.43411 11.9001L0.488281 7.32675L7.17745 6.53341L9.99911 0.416748L12.8208 6.53341L19.5099 7.32675L14.5641 11.9001L15.8766 18.5067L9.99911 15.2167Z" fill="#FF3D2E"/>
</g>
<g clip-path="url(#clip1_1133_8047)">
<path d="M29.9991 15.2167L24.1216 18.5067L25.4341 11.9001L20.4883 7.32675L27.1774 6.53341L29.9991 0.416748L32.8208 6.53341L39.5099 7.32675L34.5641 11.9001L35.8766 18.5067L29.9991 15.2167Z" fill="#FF3D2E"/>
</g>
<g clip-path="url(#clip2_1133_8047)">
<path d="M49.9991 15.2167L44.1216 18.5067L45.4341 11.9001L40.4883 7.32675L47.1774 6.53341L49.9991 0.416748L52.8208 6.53341L59.5099 7.32675L54.5641 11.9001L55.8766 18.5067L49.9991 15.2167Z" fill="#FF3D2E"/>
</g>
<g clip-path="url(#clip3_1133_8047)">
<path d="M69.9991 15.2167L64.1216 18.5067L65.4341 11.9001L60.4883 7.32675L67.1774 6.53341L69.9991 0.416748L72.8208 6.53341L79.5099 7.32675L74.5641 11.9001L75.8766 18.5067L69.9991 15.2167Z" fill="#FF3D2E"/>
</g>
<g clip-path="url(#clip4_1133_8047)">
<path d="M89.9991 15.2167L84.1216 18.5067L85.4341 11.9001L80.4883 7.32675L87.1774 6.53341L89.9991 0.416748L92.8208 6.53341L99.5099 7.32675L94.5641 11.9001L95.8766 18.5067L89.9991 15.2167Z" fill="#FF3D2E"/>
</g>
<defs>
<clipPath id="clip0_1133_8047">
<rect width="20" height="20" fill="white"/>
</clipPath>
<clipPath id="clip1_1133_8047">
<rect width="20" height="20" fill="white" transform="translate(20)"/>
</clipPath>
<clipPath id="clip2_1133_8047">
<rect width="20" height="20" fill="white" transform="translate(40)"/>
</clipPath>
<clipPath id="clip3_1133_8047">
<rect width="20" height="20" fill="white" transform="translate(60)"/>
</clipPath>
<clipPath id="clip4_1133_8047">
<rect width="20" height="20" fill="white" transform="translate(80)"/>
</clipPath>
</defs>
</svg>
